<svg width="900" height="512" viewBox="0 0 900 900" fill="none" xmlns="http://www.w3.org/2000/svg">
  <path d="M449.566 360.172L359.576 450.116L449.664 540.158L539.654 450.214L449.566 360.172Z" fill="#D9D9D9"/>
  <path d="M449.556 8.55329e-05L359.473 90.0371L696.654 427.047C702.799 433.189 706.246 441.528 706.252 450.209C706.245 458.906 702.788 467.241 696.654 473.372L539.646 630.3L629.734 720.342L808.191 541.976C858.894 491.298 858.896 409.132 808.192 358.454L449.556 8.55329e-05Z" fill="#D9D9D9"/>
  <path d="M450.442 900.001L540.525 809.964L203.344 472.955C197.199 466.812 193.752 458.473 193.746 449.792C193.753 441.096 197.21 432.761 203.345 426.629L360.352 269.701L270.264 179.659L91.8067 358.026C41.1039 408.703 41.1024 490.869 91.8065 541.548L450.442 900.001Z" fill="#D9D9D9"/>
</svg>
